<svg xmlns="http://www.w3.org/2000/svg" xmlns:xlink="http://www.w3.org/1999/xlink" width="500" zoomAndPan="magnify" viewBox="0 0 375 374.999991" height="500" preserveAspectRatio="xMidYMid meet" version="1.0"><defs><clipPath id="id1"><path d="M 139 196 L 242 196 L 242 297.949219 L 139 297.949219 Z M 139 196 " clip-rule="nonzero"/></clipPath><clipPath id="id2"><path d="M 179 76.699219 L 332 76.699219 L 332 237 L 179 237 Z M 179 76.699219 " clip-rule="nonzero"/></clipPath></defs><rect x="-37.5" width="450" fill="#ffffff" y="-37.499999" height="449.999989" fill-opacity="1"/><rect x="-37.5" width="450" fill="#f9f7dc" y="-37.499999" height="449.999989" fill-opacity="1"/><rect x="-37.5" width="450" fill="#ffffff" y="-37.499999" height="449.999989" fill-opacity="1"/><rect x="-37.5" width="450" fill="#f9f7dc" y="-37.499999" height="449.999989" fill-opacity="1"/><path fill="#ef8535" d="M 175.820312 193.90625 C 175.820312 173.734375 175.011719 153.472656 175.730469 133.347656 C 175.730469 132.898438 175.910156 132.582031 176.136719 132.3125 C 176.089844 132.222656 176.046875 132.179688 175.957031 132.089844 C 175.507812 131.460938 176.449219 130.832031 176.992188 131.324219 C 177.125 131.460938 177.261719 131.550781 177.394531 131.683594 C 178.207031 131.683594 179.015625 132.179688 179.152344 133.167969 C 186.53125 139.230469 195.933594 144.308594 205.789062 142.105469 C 215.417969 139.949219 218.925781 129.976562 218.609375 121.128906 C 218.25 110.570312 212.132812 96.867188 199.488281 99.023438 C 192.515625 100.195312 186.890625 105.496094 179.960938 107.113281 C 177.9375 107.5625 177.035156 104.777344 178.65625 103.96875 C 178.65625 103.921875 178.609375 103.878906 178.609375 103.832031 C 176.449219 95.566406 177.621094 85.59375 177.710938 77.101562 L 175.867188 77.238281 C 146.484375 79.214844 123.175781 87.253906 104.863281 98.441406 L 104.367188 98.753906 L 104.324219 98.753906 L 103.0625 99.566406 C 77.957031 115.511719 62.476562 137.523438 53.570312 158.011719 L 53.433594 158.59375 L 53.433594 158.28125 L 53.296875 158.59375 C 47.71875 171.621094 44.75 184.019531 43.667969 193.816406 C 57.214844 193.546875 70.847656 193.230469 84.210938 194.128906 C 76.742188 190.132812 72.242188 180.875 73.007812 172.566406 C 74.085938 161.109375 83.3125 152.890625 94.378906 151.453125 C 105.359375 150.015625 120.160156 151.765625 126.777344 161.917969 C 133.480469 172.160156 128.574219 183.929688 122.457031 193.230469 C 140.273438 194.757812 157.914062 194.757812 175.820312 193.949219 Z M 175.820312 193.90625 " fill-opacity="1" fill-rule="evenodd"/><path fill="#763c00" d="M 175.777344 197.949219 C 157.328125 198.890625 138.566406 199.65625 120.339844 196.195312 C 119.035156 197.722656 116.246094 196.105469 117.507812 194.355469 C 123.445312 186.042969 130.332031 174.632812 124.570312 164.390625 C 119.980469 156.167969 109.09375 154.28125 100.542969 154.28125 C 89.789062 154.328125 79.441406 158.863281 76.652344 170.183594 C 73.953125 181.234375 81.195312 188.964844 89.789062 194.398438 C 90.644531 194.894531 90.058594 196.0625 89.160156 195.882812 C 88.980469 195.835938 88.800781 195.792969 88.621094 195.746094 C 88.710938 196.601562 88.214844 197.453125 87.089844 197.542969 C 72.648438 198.757812 57.84375 198.488281 43.175781 198.21875 C 43.085938 199.609375 43.039062 200.914062 43.039062 202.125 C 43.039062 231.773438 58.203125 249.117188 73.230469 259.449219 C 75.347656 260.886719 77.417969 262.1875 79.484375 263.402344 L 79.53125 264.03125 C 79.800781 266.277344 81.195312 274.40625 87.046875 281.820312 C 90.058594 285.640625 94.289062 289.277344 100.183594 291.792969 C 104.277344 293.546875 109.136719 294.757812 114.988281 295.164062 C 116.335938 295.253906 117.730469 295.34375 119.21875 295.34375 C 123.085938 295.34375 126.417969 295.207031 129.25 294.9375 C 133.433594 294.535156 136.585938 293.90625 139.015625 293.140625 C 136.449219 289.546875 135.28125 284.964844 135.503906 279.441406 C 135.953125 267.757812 139.464844 254.328125 151.164062 249.070312 C 160.164062 245.027344 168.53125 249.117188 175.597656 254.6875 C 174.832031 235.863281 175.597656 216.816406 175.6875 197.992188 Z M 175.777344 197.949219 " fill-opacity="1" fill-rule="evenodd"/><g clip-path="url(#id1)"><path fill="#ef8535" d="M 179.554688 197.769531 C 179.554688 217.398438 179.960938 237.347656 178.386719 256.933594 C 178.925781 257.382812 179.421875 257.832031 179.914062 258.28125 C 181.535156 259.761719 179.152344 262.007812 177.53125 260.660156 C 177.125 260.300781 176.722656 259.988281 176.269531 259.628906 C 176.269531 259.628906 176.226562 259.582031 176.226562 259.582031 C 167.722656 252.710938 157.238281 246.464844 147.5625 255.765625 C 140.996094 262.054688 139.105469 271.980469 139.058594 280.742188 C 139.058594 285.460938 140.363281 289.097656 142.523438 291.792969 C 150.039062 288.066406 146.980469 283.257812 158.046875 287.527344 L 158.40625 297.902344 L 162.636719 297.902344 C 166.867188 297.363281 171.097656 296.105469 174.695312 294.21875 C 176.8125 287.078125 181.894531 271.21875 188.417969 261.019531 C 192.378906 254.820312 196.878906 250.6875 201.558594 251.855469 C 205.203125 252.753906 208.890625 253.25 212.445312 253.339844 C 213.796875 253.382812 215.101562 253.339844 216.363281 253.25 C 225.628906 252.53125 233.011719 248.488281 233.503906 240.355469 C 233.503906 240.355469 237.058594 240.132812 241.152344 238.785156 C 237.015625 237.03125 233.371094 234.472656 230.941406 230.832031 C 222.839844 218.882812 238.140625 209 235.664062 197.183594 C 234.628906 197.320312 233.503906 197.09375 232.066406 197.003906 C 226.890625 196.691406 221.761719 196.464844 216.585938 196.421875 C 205.699219 196.375 194.855469 196.914062 183.964844 197.5 C 182.523438 197.589844 181.039062 197.632812 179.601562 197.722656 Z M 179.554688 197.769531 " fill-opacity="1" fill-rule="evenodd"/></g><g clip-path="url(#id2)"><path fill="#763c00" d="M 208.800781 192.558594 C 213.4375 192.511719 218.117188 192.511719 222.75 192.691406 C 224.910156 192.738281 231.660156 194.128906 234.675781 193.636719 C 234.71875 193.589844 234.71875 193.546875 234.765625 193.5 C 234.898438 193.367188 234.988281 193.277344 235.078125 193.140625 C 235.710938 192.46875 236.746094 192.558594 237.417969 193.140625 C 237.597656 193.277344 237.777344 193.410156 237.914062 193.589844 C 238.632812 194.21875 238.589844 195.476562 237.914062 196.105469 C 237.871094 196.152344 237.824219 196.195312 237.734375 196.242188 C 237.777344 196.332031 237.777344 196.421875 237.824219 196.511719 C 239.625 201.855469 238.09375 206.4375 235.53125 211.648438 C 232.605469 217.625 229.816406 223.777344 234.269531 229.753906 C 237.015625 233.394531 241.425781 235.460938 245.699219 236.808594 C 250.46875 234.113281 254.5625 229.484375 253.167969 221.441406 C 253.167969 221.441406 254.5625 221.082031 256.453125 220.273438 C 261.582031 218.117188 270.445312 212.683594 266.621094 202.035156 L 266.53125 201.765625 C 266.53125 201.765625 269.90625 201.585938 275.082031 200.867188 C 274.359375 199.878906 273.640625 198.890625 272.964844 197.902344 C 271.929688 196.511719 273.550781 195.164062 274.898438 195.476562 C 275.125 195.117188 275.484375 194.847656 276.023438 194.847656 C 284.710938 194.355469 293.4375 194.21875 302.121094 194.308594 C 316.65625 188.785156 330.425781 179.347656 331.59375 163.175781 C 331.773438 160.75 331.820312 158.234375 331.683594 155.675781 C 330.917969 138.199219 322.910156 118.164062 300.953125 102.664062 C 299.648438 101.765625 298.34375 100.867188 296.949219 99.96875 C 285.472656 92.691406 270.582031 86.582031 251.546875 82.449219 C 242.054688 80.382812 231.480469 78.808594 219.78125 77.820312 C 211.050781 77.101562 201.738281 76.699219 191.703125 76.652344 L 182.707031 76.789062 C 182.210938 76.789062 181.671875 76.832031 181.175781 76.832031 C 181.175781 76.96875 181.175781 77.101562 181.175781 77.238281 C 181.128906 85.457031 182.34375 95.117188 180.367188 103.292969 C 190.804688 100.148438 199.667969 90.804688 210.828125 97.8125 C 219.824219 103.472656 222.707031 115.78125 221.671875 125.753906 C 219.285156 148.9375 192.875 150.375 179.152344 136.222656 C 180.09375 155.316406 179.554688 174.585938 179.464844 193.679688 C 189.183594 193.1875 198.949219 192.648438 208.667969 192.511719 Z M 208.800781 192.558594 " fill-opacity="1" fill-rule="evenodd"/></g><path stroke-linecap="butt" transform="matrix(3.750641, 0, 0, 3.75, 14.235632, 351.134567)" fill="none" stroke-linejoin="miter" d="M -0.000335048 -0.000467745 L 91.385095 -0.000467745 " stroke="#763c00" stroke-width="1" stroke-opacity="1" stroke-miterlimit="4"/><path stroke-linecap="butt" transform="matrix(3.750641, 0, 0, 3.75, 14.235632, 19.94552)" fill="none" stroke-linejoin="miter" d="M -0.000335048 -0.0000553467 L 91.385095 -0.0000553467 " stroke="#763c00" stroke-width="1" stroke-opacity="1" stroke-miterlimit="4"/><path stroke-linecap="butt" transform="matrix(0.00000000000000023, 3.753582, -3.75, 0.00000000000000023, 16.107894, 18.073252)" fill="none" stroke-linejoin="miter" d="M 0.000257529 -0.000394911 L 88.316929 -0.000394911 " stroke="#763c00" stroke-width="1" stroke-opacity="1" stroke-miterlimit="4"/><path stroke-linecap="butt" transform="matrix(0.00000000000000023, 3.74934, -3.75, 0.00000000000000023, 355.05168, 18.073252)" fill="none" stroke-linejoin="miter" d="M 0.000257821 0.000239769 L 88.816934 0.000239769 " stroke="#763c00" stroke-width="1" stroke-opacity="1" stroke-miterlimit="4"/></svg>