<svg id="visual" viewBox="0 0 900 300" width="900" height="300" xmlns="http://www.w3.org/2000/svg" xmlns:xlink="http://www.w3.org/1999/xlink" version="1.1"><path d="M0 94L13.7 98C27.3 102 54.7 110 82 113.2C109.3 116.3 136.7 114.7 163.8 112.8C191 111 218 109 245.2 105C272.3 101 299.7 95 327 91.3C354.3 87.7 381.7 86.3 409 90.8C436.3 95.3 463.7 105.7 491 111.3C518.3 117 545.7 118 573 114.8C600.3 111.7 627.7 104.3 654.8 103.2C682 102 709 107 736.2 106.2C763.3 105.3 790.7 98.7 818 94.3C845.3 90 872.7 88 886.3 87L900 86L900 0L886.3 0C872.7 0 845.3 0 818 0C790.7 0 763.3 0 736.2 0C709 0 682 0 654.8 0C627.7 0 600.3 0 573 0C545.7 0 518.3 0 491 0C463.7 0 436.3 0 409 0C381.7 0 354.3 0 327 0C299.7 0 272.3 0 245.2 0C218 0 191 0 163.8 0C136.7 0 109.3 0 82 0C54.7 0 27.3 0 13.7 0L0 0Z" fill="#cbf3ff"></path><path d="M0 66L13.7 68.2C27.3 70.3 54.7 74.7 82 76C109.3 77.3 136.7 75.7 163.8 75.8C191 76 218 78 245.2 81.3C272.3 84.7 299.7 89.3 327 89C354.3 88.7 381.7 83.3 409 81.3C436.3 79.3 463.7 80.7 491 78.5C518.3 76.3 545.7 70.7 573 73C600.3 75.3 627.7 85.7 654.8 89.5C682 93.3 709 90.7 736.2 86.7C763.3 82.7 790.7 77.3 818 78.5C845.3 79.7 872.7 87.3 886.3 91.2L900 95L900 0L886.3 0C872.7 0 845.3 0 818 0C790.7 0 763.3 0 736.2 0C709 0 682 0 654.8 0C627.7 0 600.3 0 573 0C545.7 0 518.3 0 491 0C463.7 0 436.3 0 409 0C381.7 0 354.3 0 327 0C299.7 0 272.3 0 245.2 0C218 0 191 0 163.8 0C136.7 0 109.3 0 82 0C54.7 0 27.3 0 13.7 0L0 0Z" fill="#86d8fd"></path><path d="M0 52L13.7 53.2C27.3 54.3 54.7 56.7 82 57C109.3 57.3 136.7 55.7 163.8 57.3C191 59 218 64 245.2 64C272.3 64 299.7 59 327 60C354.3 61 381.7 68 409 69.8C436.3 71.7 463.7 68.3 491 65.5C518.3 62.7 545.7 60.3 573 57.7C600.3 55 627.7 52 654.8 54.8C682 57.7 709 66.3 736.2 66.3C763.3 66.3 790.7 57.7 818 57C845.3 56.3 872.7 63.7 886.3 67.3L900 71L900 0L886.3 0C872.7 0 845.3 0 818 0C790.7 0 763.3 0 736.2 0C709 0 682 0 654.8 0C627.7 0 600.3 0 573 0C545.7 0 518.3 0 491 0C463.7 0 436.3 0 409 0C381.7 0 354.3 0 327 0C299.7 0 272.3 0 245.2 0C218 0 191 0 163.8 0C136.7 0 109.3 0 82 0C54.7 0 27.3 0 13.7 0L0 0Z" fill="#31baff"></path><path d="M0 31L13.7 31.2C27.3 31.3 54.7 31.7 82 33.3C109.3 35 136.7 38 163.8 41C191 44 218 47 245.2 49C272.3 51 299.7 52 327 50.5C354.3 49 381.7 45 409 44.8C436.3 44.7 463.7 48.3 491 49.7C518.3 51 545.7 50 573 48.8C600.3 47.7 627.7 46.3 654.8 45.7C682 45 709 45 736.2 46.2C763.3 47.3 790.7 49.7 818 51C845.3 52.3 872.7 52.7 886.3 52.8L900 53L900 0L886.3 0C872.7 0 845.3 0 818 0C790.7 0 763.3 0 736.2 0C709 0 682 0 654.8 0C627.7 0 600.3 0 573 0C545.7 0 518.3 0 491 0C463.7 0 436.3 0 409 0C381.7 0 354.3 0 327 0C299.7 0 272.3 0 245.2 0C218 0 191 0 163.8 0C136.7 0 109.3 0 82 0C54.7 0 27.3 0 13.7 0L0 0Z" fill="#0098ff"></path><path d="M0 28L13.7 28.2C27.3 28.3 54.7 28.7 82 29C109.3 29.3 136.7 29.7 163.8 28.3C191 27 218 24 245.2 23.5C272.3 23 299.7 25 327 26C354.3 27 381.7 27 409 24.8C436.3 22.7 463.7 18.3 491 17.2C518.3 16 545.7 18 573 19C600.3 20 627.7 20 654.8 20.3C682 20.7 709 21.3 736.2 21C763.3 20.7 790.7 19.3 818 18.2C845.3 17 872.7 16 886.3 15.5L900 15L900 0L886.3 0C872.7 0 845.3 0 818 0C790.7 0 763.3 0 736.2 0C709 0 682 0 654.8 0C627.7 0 600.3 0 573 0C545.7 0 518.3 0 491 0C463.7 0 436.3 0 409 0C381.7 0 354.3 0 327 0C299.7 0 272.3 0 245.2 0C218 0 191 0 163.8 0C136.7 0 109.3 0 82 0C54.7 0 27.3 0 13.7 0L0 0Z" fill="#276efd"></path></svg>